PathFileType	4	(X/Y/Z)	SUBJ62_2_walk_RCNL2025.trc
DataRate	CameraRate	NumFrames	NumMarkers	Units	OrigDataRate	OrigDataStartFrame	OrigNumFrames
100	100	12	25	mm	100	39	306
Frame#	Time	R_Shoulder			L_Shoulder			C7			J_Notch			R_Elbow			L_Elbow			R_Wrist			L_Wrist			R_Asis			L_Asis			Sacral			Thoracic			Sternum			R_Thigh_Lateral			R_Knee_Lateral			R_Shank_Lateral			R_Ankle_Lateral			R_Heel			R_Toe			L_Thigh_Lateral			L_Knee_Lateral			L_Shank_Lateral			L_Ankle_Lateral			L_Heel			L_Toe		
		X1	Y1	Z1	X2	Y2	Z2	X3	Y3	Z3	X4	Y4	Z4	X5	Y5	Z5	X6	Y6	Z6	X7	Y7	Z7	X8	Y8	Z8	X9	Y9	Z9	X10	Y10	Z10	X11	Y11	Z11	X12	Y12	Z12	X13	Y13	Z13	X14	Y14	Z14	X15	Y15	Z15	X16	Y16	Z16	X17	Y17	Z17	X18	Y18	Z18	X19	Y19	Z19	X20	Y20	Z20	X21	Y21	Z21	X22	Y22	Z22	X23	Y23	Z23	X24	Y24	Z24	X25	Y25	Z25
39	0.38000000	-736.164246	1281.494019	-47.672817	-770.926208	1304.281006	-382.958282	-820.038696	1359.418213	-204.463577	-694.724854	1271.150635	-223.869492	-731.111511	987.801453	23.452211	-804.431641	1005.274597	-456.211792	-618.973694	799.032410	11.141259	-737.156647	795.768158	-460.282700	-709.982178	881.971252	-78.291809	-706.999817	880.990723	-338.190216	-881.484680	877.603271	-212.786377	-889.031433	1165.929077	-206.465622	-684.108459	1071.509277	-224.730789	-763.178223	485.781433	-30.732836	-756.272705	431.385284	-109.660904	-770.871582	250.971115	-84.687737	-776.920593	64.829063	-171.310425	-822.179932	49.589046	-219.461746	-671.076904	50.008099	-172.565201	-675.493164	491.346527	-398.956573	-667.288025	434.332306	-354.495209	-763.118408	283.173950	-395.879272	-875.451965	153.431747	-337.645813	-921.337891	181.572891	-290.231445	-798.646667	77.928551	-335.113708
40	0.39000000	-726.534668	1281.891724	-46.599712	-761.372009	1304.335693	-381.989502	-810.238220	1359.602417	-203.323227	-684.908264	1271.341553	-222.738831	-715.846924	988.555359	24.396837	-800.097534	1005.440186	-453.816254	-597.923584	803.580963	10.003647	-738.506531	794.252686	-457.938934	-701.291931	881.655884	-76.556503	-696.669373	881.489502	-336.476135	-872.161987	877.936584	-212.178772	-879.385315	1166.176880	-205.224518	-674.482422	1071.671387	-223.355576	-759.621643	485.713654	-30.353340	-753.177856	431.287476	-109.308670	-768.932312	250.851486	-84.561600	-776.735901	64.898445	-171.346313	-822.035156	49.798462	-219.521454	-671.104919	50.002548	-172.515701	-657.006165	493.754730	-396.995544	-648.713989	435.808502	-352.273682	-737.031982	278.832794	-393.487457	-845.370544	145.795929	-335.963928	-893.321167	171.755722	-289.166321	-764.570984	74.547699	-331.650848
41	0.40000000	-716.839355	1282.170532	-45.575638	-751.822449	1304.258667	-381.063873	-800.452576	1359.659912	-202.200714	-675.110046	1271.403687	-221.652908	-700.978149	989.234680	25.342291	-795.741150	1005.572327	-451.389801	-577.269867	808.207245	8.637474	-739.678711	792.904907	-455.496872	-692.580200	881.200256	-74.872940	-686.216431	881.758789	-334.871948	-862.796204	878.149109	-211.610291	-869.752136	1166.283325	-204.024246	-664.841797	1071.705811	-222.006927	-756.071350	485.626770	-29.998999	-750.022095	431.175934	-108.967247	-766.902771	250.714600	-84.454536	-776.529724	64.989098	-171.390320	-821.768616	49.981861	-219.672287	-671.158142	50.007832	-172.447830	-638.973267	496.018372	-395.138550	-630.726440	437.126587	-350.069244	-710.863281	274.346619	-390.874573	-814.510315	137.678604	-333.934113	-864.535583	161.329422	-287.858917	-729.928223	71.037888	-327.732666
42	0.41000000	-707.069397	1282.300171	-44.609581	-742.253601	1304.037842	-380.180542	-790.675964	1359.581665	-201.108215	-665.322083	1271.325195	-220.603699	-686.482056	989.801697	26.293894	-791.329712	1005.662476	-448.963226	-557.042267	812.861023	7.064875	-740.640869	791.690460	-452.961502	-683.850952	880.619629	-73.230995	-675.689270	881.796448	-333.357513	-853.377930	878.239441	-211.074646	-860.118347	1166.242798	-202.874496	-655.181824	1071.599609	-220.683121	-752.496704	485.534607	-29.652634	-746.803406	431.051880	-108.630432	-764.871216	250.564407	-84.356651	-776.310120	65.099281	-171.442154	-821.428101	50.165070	-219.890610	-671.223572	50.016014	-172.369568	-621.552246	498.052216	-393.339630	-613.406616	438.256256	-347.881073	-684.729675	269.881592	-388.064117	-782.891907	129.251175	-331.521362	-834.962280	150.463867	-286.276123	-694.764893	67.589722	-323.379547
43	0.42000000	-697.229675	1282.262817	-43.703465	-732.651123	1303.667480	-379.334625	-780.905640	1359.359619	-200.056702	-655.540161	1271.103271	-219.579529	-672.331726	990.230286	27.255110	-786.831055	1005.701355	-446.564819	-537.280487	817.511780	5.318055	-741.359650	790.581329	-450.339172	-675.110901	879.929199	-71.621506	-665.144409	881.610596	-331.903931	-843.899414	878.205078	-210.570633	-850.471375	1166.050781	-201.783997	-645.496582	1071.346680	-219.380981	-748.889160	485.444275	-29.308626	-743.514526	430.911407	-108.294701	-762.901917	250.409378	-84.257210	-776.083496	65.226501	-171.503708	-821.077820	50.384518	-220.140381	-671.271973	50.012733	-172.301147	-604.870483	499.779785	-391.550201	-596.845459	439.149902	-345.701447	-658.759094	265.572876	-385.078308	-750.565491	120.713310	-328.698669	-804.596619	139.348953	-284.366638	-659.161133	64.400482	-318.638184
44	0.43000000	-687.337036	1282.052734	-42.851063	-723.007690	1303.144897	-378.520599	-771.141113	1358.989258	-199.053513	-645.762634	1270.740112	-218.571198	-658.499512	990.507812	28.228001	-782.215393	1005.681702	-444.213715	-518.028259	822.142700	3.435027	-741.801178	789.559784	-447.643661	-666.367249	879.141541	-70.038513	-654.614075	881.219055	-330.487549	-834.354675	878.042480	-210.101318	-840.802917	1165.705444	-200.760880	-635.779297	1070.946655	-218.098694	-745.242676	485.353271	-28.972797	-740.140015	430.747375	-107.959671	-761.022034	250.257721	-84.147591	-775.852051	65.367905	-171.580261	-820.766541	50.668037	-220.393311	-671.264282	49.981110	-172.269577	-589.021484	501.137604	-389.731354	-581.125549	439.754578	-343.516998	-633.092590	261.522888	-381.936615	-717.619019	112.285210	-325.449921	-773.462280	128.194168	-282.069550	-623.236206	61.661175	-313.582306
45	0.44000000	-677.414612	1281.673340	-42.040764	-713.320435	1302.470093	-377.734161	-761.381714	1358.470337	-198.101273	-635.986572	1270.234863	-217.577118	-644.957581	990.632751	29.211596	-777.457031	1005.598999	-441.916931	-499.318726	826.736786	1.450847	-741.935364	788.616516	-444.895813	-657.624023	878.265381	-68.481125	-644.096558	880.644226	-329.093628	-824.739441	877.747925	-209.672943	-831.109497	1165.206909	-199.810715	-626.024292	1070.404541	-216.838669	-741.542358	485.251526	-28.658007	-736.654663	430.551544	-107.627090	-759.217407	250.113098	-84.024216	-775.614075	65.521622	-171.679123	-820.509705	51.023804	-220.638824	-671.172119	49.910114	-172.294403	-574.066772	502.075165	-387.859802	-566.303162	440.019501	-341.310425	-607.884277	257.798004	-378.660980	-684.184143	104.195786	-321.777954	-741.622681	117.225456	-279.329559	-587.147217	59.545044	-308.310028
46	0.45000000	-667.485229	1281.132812	-41.258720	-703.589844	1301.646973	-376.971771	-751.624817	1357.805786	-197.197678	-626.205688	1269.586548	-216.601944	-631.678284	990.611267	30.201559	-772.534546	1005.450989	-439.670837	-481.168274	831.266815	-0.605364	-741.738403	787.744019	-442.117004	-648.876099	877.304810	-66.956360	-633.569946	879.907532	-327.712372	-815.049927	877.318665	-209.294006	-821.389343	1164.557373	-198.933640	-616.229248	1069.728760	-215.607712	-737.759827	485.126709	-28.377293	-733.022827	430.315521	-107.300148	-757.438049	249.975433	-83.888992	-775.364746	65.687859	-171.807510	-820.294128	51.445496	-220.880066	-670.994507	49.802238	-172.376633	-560.040222	502.552032	-385.927124	-552.400330	439.898987	-339.063202	-583.293945	254.428284	-375.282166	-650.441528	96.668381	-317.714600	-709.188721	106.679123	-276.112000	-551.084473	58.200748	-302.938812
47	0.46000000	-657.568970	1280.443115	-40.490341	-693.819031	1300.684448	-376.229736	-741.865417	1356.999268	-196.335831	-616.412659	1268.800415	-215.650986	-618.636902	990.454102	31.191050	-767.428528	1005.236206	-437.464752	-463.581482	835.696259	-2.705728	-741.192078	786.931763	-439.324844	-640.107422	876.259766	-65.479454	-623.005371	879.027954	-326.337341	-805.281555	876.753113	-208.974487	-811.641785	1163.760498	-198.125198	-606.396179	1068.928711	-214.415237	-733.851074	484.967865	-28.138376	-729.197876	430.031647	-106.984375	-755.610779	249.844666	-83.747993	-775.097107	65.869064	-171.971298	-820.093018	51.924759	-221.126953	-670.759583	49.675278	-172.498825	-546.952820	502.535248	-383.935120	-539.405029	439.358185	-336.759186	-559.468445	251.416870	-371.840881	-616.617371	89.905296	-313.323273	-676.324707	96.789207	-272.410919	-515.264648	57.746593	-297.597870
48	0.47000000	-647.683105	1279.617798	-39.722584	-684.011719	1299.593628	-375.505371	-732.097961	1356.054077	-195.507065	-606.602295	1267.886719	-214.728928	-605.811951	990.174255	32.171207	-762.120361	1004.953064	-435.284790	-446.555710	839.985443	-4.819731	-740.281738	786.165894	-436.534180	-631.296448	875.128662	-64.068451	-612.374207	878.020203	-324.966736	-795.428589	876.050354	-208.724625	-801.869690	1162.820679	-197.381531	-596.529968	1068.011719	-213.269226	-729.755737	484.764587	-27.942110	-725.124207	429.692383	-106.687790	-753.654541	249.720963	-83.611420	-774.802673	66.069527	-172.175140	-819.877869	52.458942	-221.392487	-670.508423	49.554157	-172.636292	-534.796875	501.997620	-381.890381	-527.276245	438.381775	-334.386902	-536.522339	248.757004	-368.380219	-582.966675	84.074341	-308.691071	-643.246399	87.768150	-268.251678	-479.924652	58.259296	-292.419159
49	0.48000000	-637.840332	1278.670044	-38.948112	-674.170776	1298.386475	-374.798859	-722.318970	1354.973267	-194.706131	-596.772827	1266.855347	-213.841034	-593.184265	989.784790	33.130600	-756.593079	1004.598450	-433.118500	-430.083267	844.094604	-6.914704	-738.994354	785.430817	-433.758682	-622.421814	873.912109	-62.738544	-601.652039	876.891968	-323.604034	-785.484924	875.209595	-208.554535	-792.079773	1161.743286	-196.704742	-586.635498	1066.983276	-212.172882	-725.397278	484.502411	-27.782976	-720.744019	429.288300	-106.419159	-751.491760	249.600708	-83.495888	-774.471924	66.295227	-172.422607	-819.623291	53.051491	-221.690552	-670.270508	49.456638	-172.771698	-523.550110	500.917786	-379.801544	-515.952881	436.979340	-331.938629	-514.534973	246.447220	-364.936646	-549.753662	79.296860	-303.918518	-610.209656	79.787384	-263.693390	-445.315308	59.757759	-287.524811
50	0.49000000	-628.046753	1277.611084	-38.167576	-664.296814	1297.074707	-374.113495	-712.527893	1353.762695	-193.935425	-586.924377	1265.716675	-212.990341	-580.733887	989.297974	34.054127	-750.831970	1004.167419	-430.958984	-414.154373	847.983795	-8.958539	-737.316956	784.711029	-431.010284	-613.464111	872.612793	-61.500607	-590.820251	875.644653	-322.256989	-775.444214	874.229675	-208.474518	-782.280090	1160.536743	-196.103531	-576.715698	1065.847046	-211.124619	-720.686707	484.157806	-27.649925	-716.006897	428.807678	-106.185326	-749.052185	249.475021	-83.426826	-774.094971	66.554024	-172.715439	-819.310181	53.710072	-222.033173	-670.052490	49.385979	-172.901230	-513.177734	499.282349	-377.677094	-505.364532	435.186432	-329.408020	-493.564636	244.494568	-361.536865	-517.241455	75.636963	-299.111542	-577.496643	72.964684	-258.828583	-411.690979	62.190990	-283.012756
